<svg id="logo" xmlns="http://www.w3.org/2000/svg" viewBox="0 0 749 224"><defs><style>.cls-1{fill:#fff;}.cls-2{fill:#f7bc97;}.cls-3{fill:#e35f2d;}.cls-4{fill:#ef7d4a;}.cls-5{fill:#243f3a;}.cls-6{fill:#39aa9a;}.cls-7{fill:#e25f2d;stroke:#e25f2c;stroke-miterlimit:10;stroke-width:7px;}</style></defs><rect class="cls-1" width="749" height="224"/><polygon class="cls-2" points="106.22 24.69 106.22 111.79 31.72 154.99 31.72 66.99 106.22 24.69"/><polygon class="cls-3" points="182.52 155.59 182.72 68.39 106.22 24.69 106.22 111.79 182.52 155.59"/><polygon class="cls-4" points="182.52 155.59 106.22 111.79 31.72 154.99 106.12 198.29 182.52 155.59"/><path class="cls-5" d="M172.66,64.34l3.9,2.3,10-5.8-82.5-48-84.6,49,175.8,99.1s1.5-.8,1.6-.9a1.61,1.61,0,0,0,.2-2.3l-.3-.3c-.6-.4-169.2-95.6-169.2-95.6l76.5-45.4,74.6,44.3Z" transform="translate(2.15 -0.45)"/><path class="cls-6" d="M176.56,66.54l4,2.3,11.5-6.8a2.11,2.11,0,0,0,.2-2.5c-.7-.6-87-50.7-87.2-50.9a1.91,1.91,0,0,0-1.8,0c-.6.3-88.3,51.4-89.3,52a1.6,1.6,0,0,0,.1,2.3c1.1.6,177,99.8,177,99.8s-86.2,49.4-86.5,49.5a1.23,1.23,0,0,1-1,.2c-.3-.1-70.1-42.4-70.4-42.5a1.39,1.39,0,0,1-.5-1v-11.7l-3.1-1.8v14.7a3.16,3.16,0,0,0,1.4,2.4L103,216a2,2,0,0,0,2.5,0c.6-.3,89.9-51.5,90.4-51.9.7-.5.9-2.5.1-2.9s-176.5-99.4-176.5-99.4l84.6-49L186,60.64Z" transform="translate(2.15 -0.45)"/><path class="cls-5" d="M32.66,157.24l4.1,2.4v7.9s66.6,40.4,66.9,40.5.6.3.9.1l82.6-47.5,3.9,2.2s-86,49.3-86.3,49.5c-.7.4-.8.4-1.6,0l-69.9-42.2c-.4-.3-.5-.4-.5-1.1C32.66,168.64,32.66,157.24,32.66,157.24Z" transform="translate(2.15 -0.45)"/><path class="cls-7" d="M301.16,91.44V93h-3.1v-1.6c0-14-13.7-25-31.5-25.2-17.6,0-31.3,11.3-31.5,25.2,0,25,69.5,25.4,69.3,53.9,0,15.3-17.2,28.2-37.6,28-20.6,0-38-12.8-38-28.2v-1.6h3.1v1.6c0,13.9,15.3,25.2,34.8,25,19.4,0,34.7-11,34.5-24.9,0-25.5-69.1-25.5-69.3-53.9,0-15.6,15.9-28.2,34.7-28.4C285.46,63,301.16,75.84,301.16,91.44Z" transform="translate(2.15 -0.45)"/><path class="cls-7" d="M322.46,132.24h0V129h0c.7-22.9,17.8-41.1,37.8-41.3,20.8,0,37.8,19.4,37.8,42.8v1.6h-72.4c.8,21.6,18.2,38.6,34.8,38.2,19.4-.5,28.5-8.5,31.9-20l.4-1.1h3.1l-.5,2c-3.8,12.4-14.5,22.3-35,22.3C341.16,173.54,323.46,155.24,322.46,132.24Zm3.2-3.2H395c0-20.6-15.3-38-34.7-38.1C341.46,90.94,326.46,107.64,325.66,129Z" transform="translate(2.15 -0.45)"/><path class="cls-7" d="M477.66,109.84c3.9-12.7,14.5-21.9,26.7-22.1,15.6,0,28.5,15.1,28.4,32.8v52.9h-3l-.2-52.9c0-16.5-11-29.5-25.2-29.6-13.9,0-25.1,12.9-25.2,29.3v53.2h-3l-.2-52.9c0-16.5-11-29.5-25.2-29.6-14,0-25.2,13.1-25.2,29.6v52.8h-3.1V87.84h3.1v18c4.8-10.5,14.4-17.9,25.2-18C463.16,87.84,473.76,97.24,477.66,109.84Z" transform="translate(2.15 -0.45)"/><path class="cls-7" d="M558.76,58.84h-1.6v-3.2h3.4v3.2h-1.8Zm-1.6,29h3.2v85.5h-3.2Z" transform="translate(2.15 -0.45)"/><path class="cls-7" d="M624.06,61.64h1.6v3.1h-1.6c-17.2,0-29,7.7-29.1,24.6v8.8h25.2v3.1H595v72h-3.1v-72h-15.8v-3.1h15.8v-8.8C592,70.94,606,61.64,624.06,61.64Z" transform="translate(2.15 -0.45)"/><path class="cls-7" d="M651.66,58.84h-1.6v-3.2h3.4v3.2h-1.8Zm-1.6,29h3.1v85.5h-3.1Z" transform="translate(2.15 -0.45)"/><path class="cls-7" d="M687.06,112.94c6.5-16.2,22.7-25.1,42.5-25.1h1.6v3.1h-1.6c-25,0-42.4,13.6-42.5,38.8v43.5H684V87.84h3.1Z" transform="translate(2.15 -0.45)"/></svg>